<svg id="Layer_1" data-name="Layer 1" xmlns="http://www.w3.org/2000/svg" viewBox="0 0 800 272"><defs><style>.cls-1{fill:#f5881a;}.cls-2{fill:#7c593a;}.cls-2,.cls-3{stroke:#2c1702;stroke-width:3px;}.cls-2,.cls-3,.cls-6{stroke-linejoin:round;}.cls-3{fill:none;}.cls-4,.cls-5{fill:#38230b;}.cls-4,.cls-6{stroke:#38230b;}.cls-4{stroke-miterlimit:10;stroke-width:1.58px;}.cls-6{fill:#caa946;stroke-width:1.58px;}.cls-7{fill:#7289da;}.cls-8{fill:#fff;}</style></defs><rect class="cls-1" width="800" height="272" rx="30"/><path class="cls-2" d="M217.3,129.17l-.12,109a1.32,1.32,0,0,1-.94,1.24,1.11,1.11,0,0,1-.6,0,205,205,0,0,0-74.84.35,192.71,192.71,0,0,0-44.11,13.92c-5.49,2.54-9.1,4.58-10.57,5.45a1.28,1.28,0,0,1-1.44-.08L64.92,244.24a1.3,1.3,0,0,1-.52-1l0-28.95L64.31,168,64.2,63.75a1.36,1.36,0,0,1,.11-.53l.06-.11a1.26,1.26,0,0,1,.68-.58l5.29-2A1.3,1.3,0,0,0,71,58.63L69.57,56.5l-4.95-7.42a1.3,1.3,0,0,1-.22-.72l0-2.76v-2L64.31,36l-.15-22a1.31,1.31,0,0,1,2.24-.92l1.43,1.45L96,43.22a1.29,1.29,0,0,1,.37.91v5.6a1.29,1.29,0,0,0,.29.83,1.32,1.32,0,0,0,1.94.1l1-1a1.31,1.31,0,0,1,1.79-.05L129,74.19a1.33,1.33,0,0,1,.43.9,17.49,17.49,0,0,0,1.21,5.24,10.15,10.15,0,0,0,9.55,6.61,1.53,1.53,0,0,0,.3,0,.81.81,0,0,0,.22-.07,1.37,1.37,0,0,0,.45-.3l24-25a1.28,1.28,0,0,1,.94-.41h5.36a1.33,1.33,0,0,0,1-.48h0a1.28,1.28,0,0,0,.29-.82V54.45a1.32,1.32,0,0,1,.36-.91l29.68-30.67a1.3,1.3,0,0,1,1.86,0l3,3a1.31,1.31,0,0,0,2.09-.32l5.21-10a1.25,1.25,0,0,1,1.14-.7,1.3,1.3,0,0,1,1.33,1.31L217.18,115a1.31,1.31,0,0,1-.73,1.17L208.79,120a1.31,1.31,0,0,0-.18,2.23l8.14,5.83A1.33,1.33,0,0,1,217.3,129.17Z"/><polyline class="cls-3" points="96.69 50.26 96.4 131.99 100.53 138.18 96.4 149.54 96.69 254.06"/><polyline class="cls-3" points="216.23 239.36 192.44 214.17 199.79 145.91 177.85 101.92 172.5 60.66 172.5 60.65 172.47 60.38"/><polyline class="cls-3" points="140.79 239.68 138.99 228.04 144.13 214.25 142.2 131.01 135.63 116.6 140.79 86.95"/><path class="cls-4" d="M204.57,168.09l2.7-1.56A31.36,31.36,0,0,1,153,197.88l3.25-1.88Z"/><polygon class="cls-5" points="158.62 194.62 196.32 172.85 196.32 172.85 158.62 194.62 158.62 194.62"/><path class="cls-6" d="M160.67,195.25a20.89,20.89,0,0,0,34.79,1L190.33,194v-1.8l7.49-.39a20.91,20.91,0,0,0,1.45-7.66,20.7,20.7,0,0,0-2.45-9.81l7.91-4.56a26.77,26.77,0,0,1-46.36,26.76Z"/><path class="cls-4" d="M76.91,168.09l-2.7-1.56a31.35,31.35,0,0,0,54.29,31.35L125.25,196Z"/><polygon class="cls-5" points="122.85 194.62 85.15 172.85 85.15 172.85 122.85 194.62 122.85 194.62"/><path class="cls-6" d="M120.81,195.25a20.9,20.9,0,0,1-34.8,1L91.15,194v-1.8l-7.49-.39a20.85,20.85,0,0,1,1-17.47l-7.9-4.56a26.77,26.77,0,0,0,46.36,26.76Z"/><path class="cls-7" d="M341.88,165.1h-28v31.46l18.64,16.78V182.81h10c6.33,0,9.45,3,9.45,7.93V214.1c0,4.9-2.95,8.19-9.45,8.19H313.79v17.79h28c15,.09,29.1-7.42,29.1-24.63V190.32C371,172.77,356.89,165.1,341.88,165.1Zm146.77,50.35V189.64c0-9.28,16.7-11.38,21.76-2.11l15.44-6.24c-6.08-13.33-17.13-17.21-26.32-17.21-15,0-29.86,8.69-29.86,25.56v25.81c0,17,14.84,25.56,29.52,25.56a30.12,30.12,0,0,0,27-16.78l-16.53-7.6c-4,10.38-21,7.85-21-1.18Zm-51-22.27c-5.82-1.26-9.7-3.37-10-7,.34-8.68,13.75-9,21.6-.67l12.4-9.53c-7.76-9.45-16.54-12-25.56-12-13.75,0-27.08,7.76-27.08,22.44,0,14.25,11,21.93,23,23.78,6.16.85,13,3.29,12.82,7.51-.51,8-17,7.59-24.55-1.52l-12,11.22c7,9,16.53,13.58,25.47,13.58,13.75,0,29-7.93,29.61-22.44.84-18.3-12.49-22.94-25.81-25.39ZM381.1,240H400V165.1H381.1Zm318.59-74.9h-28v31.46l18.64,16.78V182.81h9.95c6.33,0,9.45,3,9.45,7.93V214.1c0,4.9-3,8.19-9.45,8.19H671.6v17.79h28.09c15,.09,29.1-7.42,29.1-24.63V190.32C728.79,172.77,714.71,165.1,699.69,165.1Zm-137.4-1c-15.53,0-31,8.44-31,25.73v25.56c0,17.12,15.52,25.73,31.12,25.73s31-8.61,31-25.73V189.81C593.41,172.6,577.81,164.08,562.29,164.08Zm12.14,51.29c0,5.4-6.07,8.18-12.06,8.18s-12.15-2.61-12.15-8.18V189.81c0-5.48,5.91-8.43,11.81-8.43,6.16,0,12.4,2.61,12.4,8.43Zm86.8-25.56c-.42-17.54-12.4-24.63-27.84-24.63H603.45v74.9H622.6V216.3H626l17.38,23.78H667l-20.41-25.72C655.58,211.49,661.23,203.64,661.23,189.81Zm-27.5,10.12H622.6V182.81h11.13C645.62,182.81,645.62,199.93,633.73,199.93Z"/><path class="cls-7" d="M341.38,164.6h-28v31.46L332,212.84V182.31h10c6.33,0,9.45,3,9.45,7.93V213.6c0,4.9-2.95,8.19-9.45,8.19H313.29v17.79h28c15,.09,29.1-7.42,29.1-24.63V189.82C370.48,172.27,356.39,164.6,341.38,164.6ZM488.15,215V189.14c0-9.28,16.7-11.38,21.76-2.11l15.44-6.24c-6.08-13.33-17.13-17.21-26.32-17.21-15,0-29.86,8.69-29.86,25.56V215c0,17,14.84,25.56,29.52,25.56a30.12,30.12,0,0,0,27-16.78l-16.53-7.6c-4,10.38-21,7.85-21-1.18Zm-51-22.27c-5.82-1.26-9.7-3.37-10-7,.34-8.68,13.75-9,21.6-.67l12.4-9.53c-7.76-9.45-16.54-12-25.56-12-13.75,0-27.08,7.76-27.08,22.44,0,14.25,11,21.93,23,23.78,6.16.85,13,3.29,12.82,7.51-.51,8-17,7.59-24.55-1.52l-12,11.22c7,9,16.53,13.58,25.47,13.58,13.75,0,29-7.93,29.61-22.44.84-18.3-12.49-22.94-25.81-25.39ZM380.6,239.5h18.9V164.6H380.6Zm318.59-74.9h-28v31.46l18.64,16.78V182.31h9.95c6.33,0,9.45,3,9.45,7.93V213.6c0,4.9-3,8.19-9.45,8.19H671.1v17.79h28.09c15,.09,29.1-7.42,29.1-24.63V189.82C728.29,172.27,714.21,164.6,699.19,164.6Zm-137.4-1c-15.53,0-31,8.44-31,25.73v25.56c0,17.12,15.52,25.73,31.12,25.73s31-8.61,31-25.73V189.31C592.91,172.1,577.31,163.58,561.79,163.58Zm12.14,51.29c0,5.4-6.07,8.18-12.06,8.18s-12.15-2.61-12.15-8.18V189.31c0-5.48,5.91-8.43,11.81-8.43,6.16,0,12.4,2.61,12.4,8.43Zm86.8-25.56c-.42-17.54-12.4-24.63-27.84-24.63H603v74.9H622.1V215.8h3.37l17.38,23.78h23.61l-20.41-25.72C655.08,211,660.73,203.14,660.73,189.31Zm-27.5,10.12H622.1V182.31h11.13C645.12,182.31,645.12,199.43,633.23,199.43Z"/><path class="cls-7" d="M340.88,164.1h-28v31.46l18.64,16.78V181.81h10c6.33,0,9.45,3,9.45,7.93V213.1c0,4.9-2.95,8.19-9.45,8.19H312.79v17.79h28c15,.09,29.1-7.42,29.1-24.63V189.32C370,171.77,355.89,164.1,340.88,164.1Zm146.77,50.35V188.64c0-9.28,16.7-11.38,21.76-2.11l15.44-6.24c-6.08-13.33-17.13-17.21-26.32-17.21-15,0-29.86,8.69-29.86,25.56v25.81c0,17,14.84,25.56,29.52,25.56a30.12,30.12,0,0,0,27-16.78l-16.53-7.6c-4,10.38-21,7.85-21-1.18Zm-51-22.27c-5.82-1.26-9.7-3.37-10-7,.34-8.68,13.75-9,21.6-.67l12.4-9.53c-7.76-9.45-16.54-12-25.56-12-13.75,0-27.08,7.76-27.08,22.44,0,14.25,11,21.93,23,23.78,6.16.85,13,3.29,12.82,7.51-.51,8-17,7.59-24.55-1.52l-12,11.22c7,9,16.53,13.58,25.47,13.58,13.75,0,29-7.93,29.61-22.44.84-18.3-12.49-22.94-25.81-25.39ZM380.1,239H399V164.1H380.1Zm318.59-74.9h-28v31.46l18.64,16.78V181.81h9.95c6.33,0,9.45,3,9.45,7.93V213.1c0,4.9-3,8.19-9.45,8.19H670.6v17.79h28.09c15,.09,29.1-7.42,29.1-24.63V189.32C727.79,171.77,713.71,164.1,698.69,164.1Zm-137.4-1c-15.53,0-31,8.44-31,25.73v25.56c0,17.12,15.52,25.73,31.12,25.73s31-8.61,31-25.73V188.81C592.41,171.6,576.81,163.08,561.29,163.08Zm12.14,51.29c0,5.4-6.07,8.18-12.06,8.18s-12.15-2.61-12.15-8.18V188.81c0-5.48,5.91-8.43,11.81-8.43,6.16,0,12.4,2.61,12.4,8.43Zm86.8-25.56c-.42-17.54-12.4-24.63-27.84-24.63H602.45v74.9H621.6V215.3H625l17.38,23.78H666l-20.41-25.72C654.58,210.49,660.23,202.64,660.23,188.81Zm-27.5,10.12H621.6V181.81h11.13C644.62,181.81,644.62,198.93,632.73,198.93Z"/><path class="cls-7" d="M340.38,163.6h-28v31.46L331,211.84V181.31h10c6.33,0,9.45,3,9.45,7.93V212.6c0,4.9-2.95,8.19-9.45,8.19H312.29v17.79h28c15,.09,29.1-7.42,29.1-24.63V188.82C369.48,171.27,355.39,163.6,340.38,163.6ZM487.15,214V188.14c0-9.28,16.7-11.38,21.76-2.11l15.44-6.24c-6.08-13.33-17.13-17.21-26.32-17.21-15,0-29.86,8.69-29.86,25.56V214c0,17,14.84,25.56,29.52,25.56a30.12,30.12,0,0,0,27-16.78l-16.53-7.6c-4,10.38-21,7.85-21-1.18Zm-51-22.27c-5.82-1.26-9.7-3.37-10-7,.34-8.68,13.75-9,21.6-.67l12.4-9.53c-7.76-9.45-16.54-12-25.56-12-13.75,0-27.08,7.76-27.08,22.44,0,14.25,11,21.93,23,23.78,6.16.85,13,3.29,12.82,7.51-.51,8-17,7.59-24.55-1.52l-12,11.22c7,9,16.53,13.58,25.47,13.58,13.75,0,29-7.93,29.61-22.44.84-18.3-12.49-22.94-25.81-25.39ZM379.6,238.5h18.9V163.6H379.6Zm318.59-74.9h-28v31.46l18.64,16.78V181.31h9.95c6.33,0,9.45,3,9.45,7.93V212.6c0,4.9-3,8.19-9.45,8.19H670.1v17.79h28.09c15,.09,29.1-7.42,29.1-24.63V188.82C727.29,171.27,713.21,163.6,698.19,163.6Zm-137.4-1c-15.53,0-31,8.44-31,25.73v25.56c0,17.12,15.52,25.73,31.12,25.73s31-8.61,31-25.73V188.31C591.91,171.1,576.31,162.58,560.79,162.58Zm12.14,51.29c0,5.4-6.07,8.18-12.06,8.18s-12.15-2.61-12.15-8.18V188.31c0-5.48,5.91-8.43,11.81-8.43,6.16,0,12.4,2.61,12.4,8.43Zm86.8-25.56c-.42-17.54-12.4-24.63-27.84-24.63H602v74.9H621.1V214.8h3.37l17.38,23.78h23.61l-20.41-25.72C654.08,210,659.73,202.14,659.73,188.31Zm-27.5,10.12H621.1V181.31h11.13C644.12,181.31,644.12,198.43,632.23,198.43Z"/><path class="cls-7" d="M339.88,163.1h-28v31.46l18.64,16.78V180.81h10c6.33,0,9.45,3,9.45,7.93V212.1c0,4.9-2.95,8.19-9.45,8.19H311.79v17.79h28c15,.09,29.1-7.42,29.1-24.63V188.32C369,170.77,354.89,163.1,339.88,163.1Zm146.77,50.35V187.64c0-9.28,16.7-11.38,21.76-2.11l15.44-6.24c-6.08-13.33-17.13-17.21-26.32-17.21-15,0-29.86,8.69-29.86,25.56v25.81c0,17,14.84,25.56,29.52,25.56a30.12,30.12,0,0,0,27-16.78l-16.53-7.6c-4,10.38-21,7.85-21-1.18Zm-51-22.27c-5.82-1.26-9.7-3.37-10-7,.34-8.68,13.75-9,21.6-.67l12.4-9.53c-7.76-9.45-16.54-12-25.56-12-13.75,0-27.08,7.76-27.08,22.44,0,14.25,11,21.93,23,23.78,6.16.85,13,3.29,12.82,7.51-.51,8-17,7.59-24.55-1.52l-12,11.22c7,9,16.53,13.58,25.47,13.58,13.75,0,29-7.93,29.61-22.44.84-18.3-12.49-22.94-25.81-25.39ZM379.1,238H398V163.1H379.1Zm318.59-74.9h-28v31.46l18.64,16.78V180.81h9.95c6.33,0,9.45,3,9.45,7.93V212.1c0,4.9-3,8.19-9.45,8.19H669.6v17.79h28.09c15,.09,29.1-7.42,29.1-24.63V188.32C726.79,170.77,712.71,163.1,697.69,163.1Zm-137.4-1c-15.53,0-31,8.44-31,25.73v25.56c0,17.12,15.52,25.73,31.12,25.73s31-8.61,31-25.73V187.81C591.41,170.6,575.81,162.08,560.29,162.08Zm12.14,51.29c0,5.4-6.07,8.18-12.06,8.18s-12.15-2.61-12.15-8.18V187.81c0-5.48,5.91-8.43,11.81-8.43,6.16,0,12.4,2.61,12.4,8.43Zm86.8-25.56c-.42-17.54-12.4-24.63-27.84-24.63H601.45v74.9H620.6V214.3H624l17.38,23.78H665l-20.41-25.72C653.58,209.49,659.23,201.64,659.23,187.81Zm-27.5,10.12H620.6V180.81h11.13C643.62,180.81,643.62,197.93,631.73,197.93Z"/><path class="cls-7" d="M339.38,162.6h-28v31.46L330,210.84V180.31h10c6.33,0,9.45,3,9.45,7.93V211.6c0,4.9-2.95,8.19-9.45,8.19H311.29v17.79h28c15,.09,29.1-7.42,29.1-24.63V187.82C368.48,170.27,354.39,162.6,339.38,162.6ZM486.15,213V187.14c0-9.28,16.7-11.38,21.76-2.11l15.44-6.24c-6.08-13.33-17.13-17.21-26.32-17.21-15,0-29.86,8.69-29.86,25.56V213c0,17,14.84,25.56,29.52,25.56a30.12,30.12,0,0,0,27-16.78l-16.53-7.6c-4,10.38-21,7.85-21-1.18Zm-51-22.27c-5.82-1.26-9.7-3.37-10-7,.34-8.68,13.75-9,21.6-.67l12.4-9.53c-7.76-9.45-16.54-12-25.56-12-13.75,0-27.08,7.76-27.08,22.44,0,14.25,11,21.93,23,23.78,6.16.85,13,3.29,12.82,7.51-.51,8-17,7.59-24.55-1.52l-12,11.22c7,9,16.53,13.58,25.47,13.58,13.75,0,29-7.93,29.61-22.44.84-18.3-12.49-22.94-25.81-25.39ZM378.6,237.5h18.9V162.6H378.6Zm318.59-74.9h-28v31.46l18.64,16.78V180.31h9.95c6.33,0,9.45,3,9.45,7.93V211.6c0,4.9-3,8.19-9.45,8.19H669.1v17.79h28.09c15,.09,29.1-7.42,29.1-24.63V187.82C726.29,170.27,712.21,162.6,697.19,162.6Zm-137.4-1c-15.53,0-31,8.44-31,25.73v25.56c0,17.12,15.52,25.73,31.12,25.73s31-8.61,31-25.73V187.31C590.91,170.1,575.31,161.58,559.79,161.58Zm12.14,51.29c0,5.4-6.07,8.18-12.06,8.18s-12.15-2.61-12.15-8.18V187.31c0-5.48,5.91-8.43,11.81-8.43,6.16,0,12.4,2.61,12.4,8.43Zm86.8-25.56c-.42-17.54-12.4-24.63-27.84-24.63H601v74.9H620.1V213.8h3.37l17.38,23.78h23.61l-20.41-25.72C653.08,209,658.73,201.14,658.73,187.31Zm-27.5,10.12H620.1V180.31h11.13C643.12,180.31,643.12,197.43,631.23,197.43Z"/><path class="cls-7" d="M338.88,162.1h-28v31.46l18.64,16.78V179.81h10c6.33,0,9.45,3,9.45,7.93V211.1c0,4.9-2.95,8.19-9.45,8.19H310.79v17.79h28c15,.09,29.1-7.42,29.1-24.63V187.32C368,169.77,353.89,162.1,338.88,162.1Zm146.77,50.35V186.64c0-9.28,16.7-11.38,21.76-2.11l15.44-6.24c-6.08-13.33-17.13-17.21-26.32-17.21-15,0-29.86,8.69-29.86,25.56v25.81c0,17,14.84,25.56,29.52,25.56a30.12,30.12,0,0,0,27-16.78l-16.53-7.6c-4,10.38-21,7.85-21-1.18Zm-51-22.27c-5.82-1.26-9.7-3.37-10-7,.34-8.68,13.75-9,21.6-.67l12.4-9.53c-7.76-9.45-16.54-12-25.56-12-13.75,0-27.08,7.76-27.08,22.44,0,14.25,11,21.93,23,23.78,6.16.85,13,3.29,12.82,7.51-.51,8-17,7.59-24.55-1.52l-12,11.22c7,9,16.53,13.58,25.47,13.58,13.75,0,29-7.93,29.61-22.44.84-18.3-12.49-22.94-25.81-25.39ZM378.1,237H397V162.1H378.1Zm318.59-74.9h-28v31.46l18.64,16.78V179.81h9.95c6.33,0,9.45,3,9.45,7.93V211.1c0,4.9-3,8.19-9.45,8.19H668.6v17.79h28.09c15,.09,29.1-7.42,29.1-24.63V187.32C725.79,169.77,711.71,162.1,696.69,162.1Zm-137.4-1c-15.53,0-31,8.44-31,25.73v25.56c0,17.12,15.52,25.73,31.12,25.73s31-8.61,31-25.73V186.81C590.41,169.6,574.81,161.08,559.29,161.08Zm12.14,51.29c0,5.4-6.07,8.18-12.06,8.18s-12.15-2.61-12.15-8.18V186.81c0-5.48,5.91-8.43,11.81-8.43,6.16,0,12.4,2.61,12.4,8.43Zm86.8-25.56c-.42-17.54-12.4-24.63-27.84-24.63H600.45v74.9H619.6V213.3H623l17.38,23.78H664l-20.41-25.72C652.58,208.49,658.23,200.64,658.23,186.81Zm-27.5,10.12H619.6V179.81h11.13C642.62,179.81,642.62,196.93,630.73,196.93Z"/><path class="cls-7" d="M338.38,161.6h-28v31.46L329,209.84V179.31h10c6.33,0,9.45,3,9.45,7.93V210.6c0,4.9-2.95,8.19-9.45,8.19H310.29v17.79h28c15,.09,29.1-7.42,29.1-24.63V186.82C367.48,169.27,353.39,161.6,338.38,161.6ZM485.15,212V186.14c0-9.28,16.7-11.38,21.76-2.11l15.44-6.24c-6.08-13.33-17.13-17.21-26.32-17.21-15,0-29.86,8.69-29.86,25.56V212c0,17,14.84,25.56,29.52,25.56a30.12,30.12,0,0,0,27-16.78l-16.53-7.6c-4,10.38-21,7.85-21-1.18Zm-51-22.27c-5.82-1.26-9.7-3.37-10-7,.34-8.68,13.75-9,21.6-.67l12.4-9.53c-7.76-9.45-16.54-12-25.56-12-13.75,0-27.08,7.76-27.08,22.44,0,14.25,11,21.93,23,23.78,6.16.85,13,3.29,12.82,7.51-.51,8-17,7.59-24.55-1.52l-12,11.22c7,9,16.53,13.58,25.47,13.58,13.75,0,29-7.93,29.61-22.44.84-18.3-12.49-22.94-25.81-25.39ZM377.6,236.5h18.9V161.6H377.6Zm318.59-74.9h-28v31.46l18.64,16.78V179.31h9.95c6.33,0,9.45,3,9.45,7.93V210.6c0,4.9-3,8.19-9.45,8.19H668.1v17.79h28.09c15,.09,29.1-7.42,29.1-24.63V186.82C725.29,169.27,711.21,161.6,696.19,161.6Zm-137.4-1c-15.53,0-31,8.44-31,25.73v25.56c0,17.12,15.52,25.73,31.12,25.73s31-8.61,31-25.73V186.31C589.91,169.1,574.31,160.58,558.79,160.58Zm12.14,51.29c0,5.4-6.07,8.18-12.06,8.18s-12.15-2.61-12.15-8.18V186.31c0-5.48,5.91-8.43,11.81-8.43,6.16,0,12.4,2.61,12.4,8.43Zm86.8-25.56c-.42-17.54-12.4-24.63-27.84-24.63H600v74.9H619.1V212.8h3.37l17.38,23.78h23.61l-20.41-25.72C652.08,208,657.73,200.14,657.73,186.31Zm-27.5,10.12H619.1V179.31h11.13C642.12,179.31,642.12,196.43,630.23,196.43Z"/><path class="cls-7" d="M337.88,161.1h-28v31.46l18.64,16.78V178.81h10c6.33,0,9.45,3,9.45,7.93V210.1c0,4.9-2.95,8.19-9.45,8.19H309.79v17.79h28c15,.09,29.1-7.42,29.1-24.63V186.32C367,168.77,352.89,161.1,337.88,161.1Zm146.77,50.35V185.64c0-9.28,16.7-11.38,21.76-2.11l15.44-6.24c-6.08-13.33-17.13-17.21-26.32-17.21-15,0-29.86,8.69-29.86,25.56v25.81c0,17,14.84,25.56,29.52,25.56a30.12,30.12,0,0,0,27-16.78l-16.53-7.6c-4,10.38-21,7.85-21-1.18Zm-51-22.27c-5.82-1.26-9.7-3.37-10-7,.34-8.68,13.75-9,21.6-.67l12.4-9.53c-7.76-9.45-16.54-12-25.56-12-13.75,0-27.08,7.76-27.08,22.44,0,14.25,11,21.93,23,23.78,6.16.85,13,3.29,12.82,7.51-.51,8-17,7.59-24.55-1.52l-12,11.22c7,9,16.53,13.58,25.47,13.58,13.75,0,29-7.93,29.61-22.44.84-18.3-12.49-22.94-25.81-25.39ZM377.1,236H396V161.1H377.1Zm318.59-74.9h-28v31.46l18.64,16.78V178.81h9.95c6.33,0,9.45,3,9.45,7.93V210.1c0,4.9-3,8.19-9.45,8.19H667.6v17.79h28.09c15,.09,29.1-7.42,29.1-24.63V186.32C724.79,168.77,710.71,161.1,695.69,161.1Zm-137.4-1c-15.53,0-31,8.44-31,25.73v25.56c0,17.12,15.52,25.73,31.12,25.73s31-8.61,31-25.73V185.81C589.41,168.6,573.81,160.08,558.29,160.08Zm12.14,51.29c0,5.4-6.07,8.18-12.06,8.18s-12.15-2.61-12.15-8.18V185.81c0-5.48,5.91-8.43,11.81-8.43,6.16,0,12.4,2.61,12.4,8.43Zm86.8-25.56c-.42-17.54-12.4-24.63-27.84-24.63H599.45v74.9H618.6V212.3H622l17.38,23.78H663l-20.41-25.72C651.58,207.49,657.23,199.64,657.23,185.81Zm-27.5,10.12H618.6V178.81h11.13C641.62,178.81,641.62,195.93,629.73,195.93Z"/><path class="cls-7" d="M337.38,160.6h-28v31.46L328,208.84V178.31h10c6.33,0,9.45,3,9.45,7.93V209.6c0,4.9-2.95,8.19-9.45,8.19H309.29v17.79h28c15,.09,29.1-7.42,29.1-24.63V185.82C366.48,168.27,352.39,160.6,337.38,160.6ZM484.15,211V185.14c0-9.28,16.7-11.38,21.76-2.11l15.44-6.24c-6.08-13.33-17.13-17.21-26.32-17.21-15,0-29.86,8.69-29.86,25.56V211c0,17,14.84,25.56,29.52,25.56a30.12,30.12,0,0,0,27-16.78l-16.53-7.6c-4,10.38-21,7.85-21-1.18Zm-51-22.27c-5.82-1.26-9.7-3.37-10-7,.34-8.68,13.75-9,21.6-.67l12.4-9.53c-7.76-9.45-16.54-12-25.56-12-13.75,0-27.08,7.76-27.08,22.44,0,14.25,11,21.93,23,23.78,6.16.85,13,3.29,12.82,7.51-.51,8-17,7.59-24.55-1.52l-12,11.22c7,9,16.53,13.58,25.47,13.58,13.75,0,29-7.93,29.61-22.44.84-18.3-12.49-22.94-25.81-25.39ZM376.6,235.5h18.9V160.6H376.6Zm318.59-74.9h-28v31.46l18.64,16.78V178.31h9.95c6.33,0,9.45,3,9.45,7.93V209.6c0,4.9-3,8.19-9.45,8.19H667.1v17.79h28.09c15,.09,29.1-7.42,29.1-24.63V185.82C724.29,168.27,710.21,160.6,695.19,160.6Zm-137.4-1c-15.53,0-31,8.44-31,25.73v25.56c0,17.12,15.52,25.73,31.12,25.73s31-8.61,31-25.73V185.31C588.91,168.1,573.31,159.58,557.79,159.58Zm12.14,51.29c0,5.4-6.07,8.18-12.06,8.18s-12.15-2.61-12.15-8.18V185.31c0-5.48,5.91-8.43,11.81-8.43,6.16,0,12.4,2.61,12.4,8.43Zm86.8-25.56c-.42-17.54-12.4-24.63-27.84-24.63H599v74.9H618.1V211.8h3.37l17.38,23.78h23.61l-20.41-25.72C651.08,207,656.73,199.14,656.73,185.31Zm-27.5,10.12H618.1V178.31h11.13C641.12,178.31,641.12,195.43,629.23,195.43Z"/><path class="cls-7" d="M336.88,160.1h-28v31.46l18.64,16.78V177.81h10c6.33,0,9.45,3,9.45,7.93V209.1c0,4.9-2.95,8.19-9.45,8.19H308.79v17.79h28c15,.09,29.1-7.42,29.1-24.63V185.32C366,167.77,351.89,160.1,336.88,160.1Zm146.77,50.35V184.64c0-9.28,16.7-11.38,21.76-2.11l15.44-6.24c-6.08-13.33-17.13-17.21-26.32-17.21-15,0-29.86,8.69-29.86,25.56v25.81c0,17,14.84,25.56,29.52,25.56a30.12,30.12,0,0,0,27-16.78l-16.53-7.6c-4,10.38-21,7.85-21-1.18Zm-51-22.27c-5.82-1.26-9.7-3.37-10-7,.34-8.68,13.75-9,21.6-.67l12.4-9.53c-7.76-9.45-16.54-12-25.56-12-13.75,0-27.08,7.76-27.08,22.44,0,14.25,11,21.93,23,23.78,6.16.85,13,3.29,12.82,7.51-.51,8-17,7.59-24.55-1.52l-12,11.22c7,9,16.53,13.58,25.47,13.58,13.75,0,29-7.93,29.61-22.44.84-18.3-12.49-22.94-25.81-25.39ZM376.1,235H395V160.1H376.1Zm318.59-74.9h-28v31.46l18.64,16.78V177.81h9.95c6.33,0,9.45,3,9.45,7.93V209.1c0,4.9-3,8.19-9.45,8.19H666.6v17.79h28.09c15,.09,29.1-7.42,29.1-24.63V185.32C723.79,167.77,709.71,160.1,694.69,160.1Zm-137.4-1c-15.53,0-31,8.44-31,25.73v25.56c0,17.12,15.52,25.73,31.12,25.73s31-8.61,31-25.73V184.81C588.41,167.6,572.81,159.08,557.29,159.08Zm12.14,51.29c0,5.4-6.07,8.18-12.06,8.18s-12.15-2.61-12.15-8.18V184.81c0-5.48,5.91-8.43,11.81-8.43,6.16,0,12.4,2.61,12.4,8.43Zm86.8-25.56c-.42-17.54-12.4-24.63-27.84-24.63H598.45v74.9H617.6V211.3H621l17.38,23.78H662l-20.41-25.72C650.58,206.49,656.23,198.64,656.23,184.81Zm-27.5,10.12H617.6V177.81h11.13C640.62,177.81,640.62,194.93,628.73,194.93Z"/><path class="cls-7" d="M336.38,159.6h-28v31.46L327,207.84V177.31h10c6.33,0,9.45,3,9.45,7.93V208.6c0,4.9-2.95,8.19-9.45,8.19H308.29v17.79h28c15,.09,29.1-7.42,29.1-24.63V184.82C365.48,167.27,351.39,159.6,336.38,159.6ZM483.15,210V184.14c0-9.28,16.7-11.38,21.76-2.11l15.44-6.24c-6.08-13.33-17.13-17.21-26.32-17.21-15,0-29.86,8.69-29.86,25.56V210c0,17,14.84,25.56,29.52,25.56a30.12,30.12,0,0,0,27-16.78l-16.53-7.6c-4,10.38-21,7.85-21-1.18Zm-51-22.27c-5.82-1.26-9.7-3.37-10-7,.34-8.68,13.75-9,21.6-.67l12.4-9.53c-7.76-9.45-16.54-12-25.56-12-13.75,0-27.08,7.76-27.08,22.44,0,14.25,11,21.93,23,23.78,6.16.85,13,3.29,12.82,7.51-.51,8-17,7.59-24.55-1.52l-12,11.22c7,9,16.53,13.58,25.47,13.58,13.75,0,29-7.93,29.61-22.44.84-18.3-12.49-22.94-25.81-25.39ZM375.6,234.5h18.9V159.6H375.6Zm318.59-74.9h-28v31.46l18.64,16.78V177.31h9.95c6.33,0,9.45,3,9.45,7.93V208.6c0,4.9-3,8.19-9.45,8.19H666.1v17.79h28.09c15,.09,29.1-7.42,29.1-24.63V184.82C723.29,167.27,709.21,159.6,694.19,159.6Zm-137.4-1c-15.53,0-31,8.44-31,25.73v25.56c0,17.12,15.52,25.73,31.12,25.73s31-8.61,31-25.73V184.31C587.91,167.1,572.31,158.58,556.79,158.58Zm12.14,51.29c0,5.4-6.07,8.18-12.06,8.18s-12.15-2.61-12.15-8.18V184.31c0-5.48,5.91-8.43,11.81-8.43,6.16,0,12.4,2.61,12.4,8.43Zm86.8-25.56c-.42-17.54-12.4-24.63-27.84-24.63H598v74.9H617.1V210.8h3.37l17.38,23.78h23.61l-20.41-25.72C650.08,206,655.73,198.14,655.73,184.31Zm-27.5,10.12H617.1V177.31h11.13C640.12,177.31,640.12,194.43,628.23,194.43Z"/><path class="cls-7" d="M335.88,159.1h-28v31.46l18.64,16.78V176.81h10c6.33,0,9.45,3,9.45,7.93V208.1c0,4.9-2.95,8.19-9.45,8.19H307.79v17.79h28c15,.09,29.1-7.42,29.1-24.63V184.32C365,166.77,350.89,159.1,335.88,159.1Zm146.77,50.35V183.64c0-9.28,16.7-11.38,21.76-2.11l15.44-6.24c-6.08-13.33-17.13-17.21-26.32-17.21-15,0-29.86,8.69-29.86,25.56v25.81c0,17,14.84,25.56,29.52,25.56a30.12,30.12,0,0,0,27-16.78l-16.53-7.6c-4,10.38-21,7.85-21-1.18Zm-51-22.27c-5.82-1.26-9.7-3.37-10-7,.34-8.68,13.75-9,21.6-.67l12.4-9.53c-7.76-9.45-16.54-12-25.56-12-13.75,0-27.08,7.76-27.08,22.44,0,14.25,11,21.93,23,23.78,6.16.85,13,3.29,12.82,7.51-.51,8-17,7.59-24.55-1.52l-12,11.22c7,9,16.53,13.58,25.47,13.58,13.75,0,29-7.93,29.61-22.44.84-18.3-12.49-22.94-25.81-25.39ZM375.1,234H394V159.1H375.1Zm318.59-74.9h-28v31.46l18.64,16.78V176.81h9.95c6.33,0,9.45,3,9.45,7.93V208.1c0,4.9-3,8.19-9.45,8.19H665.6v17.79h28.09c15,.09,29.1-7.42,29.1-24.63V184.32C722.79,166.77,708.71,159.1,693.69,159.1Zm-137.4-1c-15.53,0-31,8.44-31,25.73v25.56c0,17.12,15.52,25.73,31.12,25.73s31-8.61,31-25.73V183.81C587.41,166.6,571.81,158.08,556.29,158.08Zm12.14,51.29c0,5.4-6.07,8.18-12.06,8.18s-12.15-2.61-12.15-8.18V183.81c0-5.48,5.91-8.43,11.81-8.43,6.16,0,12.4,2.61,12.4,8.43Zm86.8-25.56c-.42-17.54-12.4-24.63-27.84-24.63H597.45v74.9H616.6V210.3H620l17.38,23.78H661l-20.41-25.72C649.58,205.49,655.23,197.64,655.23,183.81Zm-27.5,10.12H616.6V176.81h11.13C639.62,176.81,639.62,193.93,627.73,193.93Z"/><path class="cls-7" d="M335.38,158.6h-28v31.46L326,206.84V176.31h10c6.33,0,9.45,3,9.45,7.93V207.6c0,4.9-2.95,8.19-9.45,8.19H307.29v17.79h28c15,.09,29.1-7.42,29.1-24.63V183.82C364.48,166.27,350.39,158.6,335.38,158.6ZM482.15,209V183.14c0-9.28,16.7-11.38,21.76-2.11l15.44-6.24c-6.08-13.33-17.13-17.21-26.32-17.21-15,0-29.86,8.69-29.86,25.56V209c0,17,14.84,25.56,29.52,25.56a30.12,30.12,0,0,0,27-16.78l-16.53-7.6c-4,10.38-21,7.85-21-1.18Zm-51-22.27c-5.82-1.26-9.7-3.37-10-7,.34-8.68,13.75-9,21.6-.67l12.4-9.53c-7.76-9.45-16.54-12-25.56-12-13.75,0-27.08,7.76-27.08,22.44,0,14.25,11,21.93,23,23.78,6.16.85,13,3.29,12.82,7.51-.51,8-17,7.59-24.55-1.52l-12,11.22c7,9,16.53,13.58,25.47,13.58,13.75,0,29-7.93,29.61-22.44.84-18.3-12.49-22.94-25.81-25.39ZM374.6,233.5h18.9V158.6H374.6Zm318.59-74.9h-28v31.46l18.64,16.78V176.31h9.95c6.33,0,9.45,3,9.45,7.93V207.6c0,4.9-3,8.19-9.45,8.19H665.1v17.79h28.09c15,.09,29.1-7.42,29.1-24.63V183.82C722.29,166.27,708.21,158.6,693.19,158.6Zm-137.4-1c-15.53,0-31,8.44-31,25.73v25.56c0,17.12,15.52,25.73,31.12,25.73s31-8.61,31-25.73V183.31C586.91,166.1,571.31,157.58,555.79,157.58Zm12.14,51.29c0,5.4-6.07,8.18-12.06,8.18s-12.15-2.61-12.15-8.18V183.31c0-5.48,5.91-8.43,11.81-8.43,6.16,0,12.4,2.61,12.4,8.43Zm86.8-25.56c-.42-17.54-12.4-24.63-27.84-24.63H597v74.9H616.1V209.8h3.37l17.38,23.78h23.61l-20.41-25.72C649.08,205,654.73,197.14,654.73,183.31Zm-27.5,10.12H616.1V176.31h11.13C639.12,176.31,639.12,193.43,627.23,193.43Z"/><path class="cls-7" d="M334.88,158.1h-28v31.46l18.64,16.78V175.81h10c6.33,0,9.45,3,9.45,7.93V207.1c0,4.9-2.95,8.19-9.45,8.19H306.79v17.79h28c15,.09,29.1-7.42,29.1-24.63V183.32C364,165.77,349.89,158.1,334.88,158.1Zm146.77,50.35V182.64c0-9.28,16.7-11.38,21.76-2.11l15.44-6.24c-6.08-13.33-17.13-17.21-26.32-17.21-15,0-29.86,8.69-29.86,25.56v25.81c0,17,14.84,25.56,29.52,25.56a30.12,30.12,0,0,0,27-16.78l-16.53-7.6c-4,10.38-21,7.85-21-1.18Zm-51-22.27c-5.82-1.26-9.7-3.37-10-7,.34-8.68,13.75-9,21.6-.67l12.4-9.53c-7.76-9.45-16.54-12-25.56-12-13.75,0-27.08,7.76-27.08,22.44,0,14.25,11,21.93,23,23.78,6.16.85,13,3.29,12.82,7.51-.51,8-17,7.59-24.55-1.52l-12,11.22c7,9,16.53,13.58,25.47,13.58,13.75,0,29-7.93,29.61-22.44.84-18.3-12.49-22.94-25.81-25.39ZM374.1,233H393V158.1H374.1Zm318.59-74.9h-28v31.46l18.64,16.78V175.81h9.95c6.33,0,9.45,3,9.45,7.93V207.1c0,4.9-3,8.19-9.45,8.19H664.6v17.79h28.09c15,.09,29.1-7.42,29.1-24.63V183.32C721.79,165.77,707.71,158.1,692.69,158.1Zm-137.4-1c-15.53,0-31,8.44-31,25.73v25.56c0,17.12,15.52,25.73,31.12,25.73s31-8.61,31-25.73V182.81C586.41,165.6,570.81,157.08,555.29,157.08Zm12.14,51.29c0,5.4-6.07,8.18-12.06,8.18s-12.15-2.61-12.15-8.18V182.81c0-5.48,5.91-8.43,11.81-8.43,6.16,0,12.4,2.61,12.4,8.43Zm86.8-25.56c-.42-17.54-12.4-24.63-27.84-24.63H596.45v74.9H615.6V209.3H619l17.38,23.78H660l-20.41-25.72C648.58,204.49,654.23,196.64,654.23,182.81Zm-27.5,10.12H615.6V175.81h11.13C638.62,175.81,638.62,192.93,626.73,192.93Z"/><path class="cls-7" d="M334.38,157.6h-28v31.46L325,205.84V175.31h10c6.33,0,9.45,3,9.45,7.93V206.6c0,4.9-2.95,8.19-9.45,8.19H306.29v17.79h28c15,.09,29.1-7.42,29.1-24.63V182.82C363.48,165.27,349.39,157.6,334.38,157.6ZM481.15,208V182.14c0-9.28,16.7-11.38,21.76-2.11l15.44-6.24c-6.08-13.33-17.13-17.21-26.32-17.21-15,0-29.86,8.69-29.86,25.56V208c0,17,14.84,25.56,29.52,25.56a30.12,30.12,0,0,0,27-16.78l-16.53-7.6c-4,10.38-21,7.85-21-1.18Zm-51-22.27c-5.82-1.26-9.7-3.37-10-7,.34-8.68,13.75-9,21.6-.67l12.4-9.53c-7.76-9.45-16.54-12-25.56-12-13.75,0-27.08,7.76-27.08,22.44,0,14.25,11,21.93,23,23.78,6.16.85,13,3.29,12.82,7.51-.51,8-17,7.59-24.55-1.52l-12,11.22c7,9,16.53,13.58,25.47,13.58,13.75,0,29-7.93,29.61-22.44.84-18.3-12.49-22.94-25.81-25.39ZM373.6,232.5h18.9V157.6H373.6Zm318.59-74.9h-28v31.46l18.64,16.78V175.31h9.95c6.33,0,9.45,3,9.45,7.93V206.6c0,4.9-3,8.19-9.45,8.19H664.1v17.79h28.09c15,.09,29.1-7.42,29.1-24.63V182.82C721.29,165.27,707.21,157.6,692.19,157.6Zm-137.4-1c-15.53,0-31,8.44-31,25.73v25.56c0,17.12,15.52,25.73,31.12,25.73s31-8.61,31-25.73V182.31C585.91,165.1,570.31,156.58,554.79,156.58Zm12.14,51.29c0,5.4-6.07,8.18-12.06,8.18s-12.15-2.61-12.15-8.18V182.31c0-5.48,5.91-8.43,11.81-8.43,6.16,0,12.4,2.61,12.4,8.43Zm86.8-25.56c-.42-17.54-12.4-24.63-27.84-24.63H596v74.9H615.1V208.8h3.37l17.38,23.78h23.61l-20.41-25.72C648.08,204,653.73,196.14,653.73,182.31Zm-27.5,10.12H615.1V175.31h11.13C638.12,175.31,638.12,192.43,626.23,192.43Z"/><path class="cls-7" d="M333.88,157.1h-28v31.46l18.64,16.78V174.81h10c6.33,0,9.45,3,9.45,7.93V206.1c0,4.9-2.95,8.19-9.45,8.19H305.79v17.79h28c15,.09,29.1-7.42,29.1-24.63V182.32C363,164.77,348.89,157.1,333.88,157.1Zm146.77,50.35V181.64c0-9.28,16.7-11.38,21.76-2.11l15.44-6.24c-6.08-13.33-17.13-17.21-26.32-17.21-15,0-29.86,8.69-29.86,25.56v25.81c0,17,14.84,25.56,29.52,25.56a30.12,30.12,0,0,0,27-16.78l-16.53-7.6c-4,10.38-21,7.85-21-1.18Zm-51-22.27c-5.82-1.26-9.7-3.37-10-7,.34-8.68,13.75-9,21.6-.67l12.4-9.53c-7.76-9.45-16.54-12-25.56-12-13.75,0-27.08,7.76-27.08,22.44,0,14.25,11,21.93,23,23.78,6.16.85,13,3.29,12.82,7.51-.51,8-17,7.59-24.55-1.52l-12,11.22c7,9,16.53,13.58,25.47,13.58,13.75,0,29-7.93,29.61-22.44.84-18.3-12.49-22.94-25.81-25.39ZM373.1,232H392V157.1H373.1Zm318.59-74.9h-28v31.46l18.64,16.78V174.81h9.95c6.33,0,9.45,3,9.45,7.93V206.1c0,4.9-3,8.19-9.45,8.19H663.6v17.79h28.09c15,.09,29.1-7.42,29.1-24.63V182.32C720.79,164.77,706.71,157.1,691.69,157.1Zm-137.4-1c-15.53,0-31,8.44-31,25.73v25.56c0,17.12,15.52,25.73,31.12,25.73s31-8.61,31-25.73V181.81C585.41,164.6,569.81,156.08,554.29,156.08Zm12.14,51.29c0,5.4-6.07,8.18-12.06,8.18s-12.15-2.61-12.15-8.18V181.81c0-5.48,5.91-8.43,11.81-8.43,6.16,0,12.4,2.61,12.4,8.43Zm86.8-25.56c-.42-17.54-12.4-24.63-27.84-24.63H595.45v74.9H614.6V208.3H618l17.38,23.78H659l-20.41-25.72C647.58,203.49,653.23,195.64,653.23,181.81Zm-27.5,10.12H614.6V174.81h11.13C637.62,174.81,637.62,191.93,625.73,191.93Z"/><path class="cls-7" d="M333.38,156.6h-28v31.46L324,204.84V174.31h10c6.33,0,9.45,3,9.45,7.93V205.6c0,4.9-2.95,8.19-9.45,8.19H305.29v17.79h28c15,.09,29.1-7.42,29.1-24.63V181.82C362.48,164.27,348.39,156.6,333.38,156.6ZM480.15,207V181.14c0-9.28,16.7-11.38,21.76-2.11l15.44-6.24c-6.08-13.33-17.13-17.21-26.32-17.21-15,0-29.86,8.69-29.86,25.56V207c0,17,14.84,25.56,29.52,25.56a30.12,30.12,0,0,0,27-16.78l-16.53-7.6c-4,10.38-21,7.85-21-1.18Zm-51-22.27c-5.82-1.26-9.7-3.37-10-7,.34-8.68,13.75-9,21.6-.67l12.4-9.53c-7.76-9.45-16.54-12-25.56-12-13.75,0-27.08,7.76-27.08,22.44,0,14.25,11,21.93,23,23.78,6.16.85,13,3.29,12.82,7.51-.51,8-17,7.59-24.55-1.52l-12,11.22c7,9,16.53,13.58,25.47,13.58,13.75,0,29-7.93,29.61-22.44.84-18.3-12.49-22.94-25.81-25.39ZM372.6,231.5h18.9V156.6H372.6Zm318.59-74.9h-28v31.46l18.64,16.78V174.31h9.95c6.33,0,9.45,3,9.45,7.93V205.6c0,4.9-3,8.19-9.45,8.19H663.1v17.79h28.09c15,.09,29.1-7.42,29.1-24.63V181.82C720.29,164.27,706.21,156.6,691.19,156.6Zm-137.4-1c-15.53,0-31,8.44-31,25.73v25.56c0,17.12,15.52,25.73,31.12,25.73s31-8.61,31-25.73V181.31C584.91,164.1,569.31,155.58,553.79,155.58Zm12.14,51.29c0,5.4-6.07,8.18-12.06,8.18s-12.15-2.61-12.15-8.18V181.31c0-5.48,5.91-8.43,11.81-8.43,6.16,0,12.4,2.61,12.4,8.43Zm86.8-25.56c-.42-17.54-12.4-24.63-27.84-24.63H595v74.9H614.1V207.8h3.37l17.38,23.78h23.61l-20.41-25.72C647.08,203,652.73,195.14,652.73,181.31Zm-27.5,10.12H614.1V174.31h11.13C637.12,174.31,637.12,191.43,625.23,191.43Z"/><path class="cls-7" d="M332.88,156.1h-28v31.46l18.64,16.78V173.81h10c6.33,0,9.45,3,9.45,7.93V205.1c0,4.9-2.95,8.19-9.45,8.19H304.79v17.79h28c15,.09,29.1-7.42,29.1-24.63V181.32C362,163.77,347.89,156.1,332.88,156.1Zm146.77,50.35V180.64c0-9.28,16.7-11.38,21.76-2.11l15.44-6.24c-6.08-13.33-17.13-17.21-26.32-17.21-15,0-29.86,8.69-29.86,25.56v25.81c0,17,14.84,25.56,29.52,25.56a30.12,30.12,0,0,0,27-16.78l-16.53-7.6c-4,10.38-21,7.85-21-1.18Zm-51-22.27c-5.82-1.26-9.7-3.37-10-7,.34-8.68,13.75-9,21.6-.67l12.4-9.53c-7.76-9.45-16.54-12-25.56-12-13.75,0-27.08,7.76-27.08,22.44,0,14.25,11,21.93,23,23.78,6.16.85,13,3.29,12.82,7.51-.51,8-17,7.59-24.55-1.52l-12,11.22c7,9,16.53,13.58,25.47,13.58,13.75,0,29-7.93,29.61-22.44.84-18.3-12.49-22.94-25.81-25.39ZM372.1,231H391V156.1H372.1Zm318.59-74.9h-28v31.46l18.64,16.78V173.81h9.95c6.33,0,9.45,3,9.45,7.93V205.1c0,4.9-3,8.19-9.45,8.19H662.6v17.79h28.09c15,.09,29.1-7.42,29.1-24.63V181.32C719.79,163.77,705.71,156.1,690.69,156.1Zm-137.4-1c-15.53,0-31,8.44-31,25.73v25.56c0,17.12,15.52,25.73,31.12,25.73s31-8.61,31-25.73V180.81C584.41,163.6,568.81,155.08,553.29,155.08Zm12.14,51.29c0,5.4-6.07,8.18-12.06,8.18s-12.15-2.61-12.15-8.18V180.81c0-5.48,5.91-8.43,11.81-8.43,6.16,0,12.4,2.61,12.4,8.43Zm86.8-25.56c-.42-17.54-12.4-24.63-27.84-24.63H594.45v74.9H613.6V207.3H617l17.38,23.78H658l-20.41-25.72C646.58,202.49,652.23,194.64,652.23,180.81Zm-27.5,10.12H613.6V173.81h11.13C636.62,173.81,636.62,190.93,624.73,190.93Z"/><path class="cls-7" d="M332.38,155.6h-28v31.46L323,203.84V173.31h10c6.33,0,9.45,3,9.45,7.93V204.6c0,4.9-2.95,8.19-9.45,8.19H304.29v17.79h28c15,.09,29.1-7.42,29.1-24.63V180.82C361.48,163.27,347.39,155.6,332.38,155.6ZM479.15,206V180.14c0-9.28,16.7-11.38,21.76-2.11l15.44-6.24c-6.08-13.33-17.13-17.21-26.32-17.21-15,0-29.86,8.69-29.86,25.56V206c0,17,14.84,25.56,29.52,25.56a30.12,30.12,0,0,0,27-16.78l-16.53-7.6c-4,10.38-21,7.85-21-1.18Zm-51-22.27c-5.82-1.26-9.7-3.37-10-7,.34-8.68,13.75-9,21.6-.67l12.4-9.53c-7.76-9.45-16.54-12-25.56-12-13.75,0-27.08,7.76-27.08,22.44,0,14.25,11,21.93,23,23.78,6.16.85,13,3.29,12.82,7.51-.51,8-17,7.59-24.55-1.52l-12,11.22c7,9,16.53,13.58,25.47,13.58,13.75,0,29-7.93,29.61-22.44.84-18.3-12.49-22.94-25.81-25.39ZM371.6,230.5h18.9V155.6H371.6Zm318.59-74.9h-28v31.46l18.64,16.78V173.31h9.95c6.33,0,9.45,3,9.45,7.93V204.6c0,4.9-3,8.19-9.45,8.19H662.1v17.79h28.09c15,.09,29.1-7.42,29.1-24.63V180.82C719.29,163.27,705.21,155.6,690.19,155.6Zm-137.4-1c-15.53,0-31,8.44-31,25.73v25.56c0,17.12,15.52,25.73,31.12,25.73s31-8.61,31-25.73V180.31C583.91,163.1,568.31,154.58,552.79,154.58Zm12.14,51.29c0,5.4-6.07,8.18-12.06,8.18s-12.15-2.61-12.15-8.18V180.31c0-5.48,5.91-8.43,11.81-8.43,6.16,0,12.4,2.61,12.4,8.43Zm86.8-25.56c-.42-17.54-12.4-24.63-27.84-24.63H594v74.9H613.1V206.8h3.37l17.38,23.78h23.61l-20.41-25.72C646.08,202,651.73,194.14,651.73,180.31Zm-27.5,10.12H613.1V173.31h11.13C636.12,173.31,636.12,190.43,624.23,190.43Z"/><path class="cls-7" d="M331.88,155.1h-28v31.46l18.64,16.78V172.81h10c6.33,0,9.45,3,9.45,7.93V204.1c0,4.9-2.95,8.19-9.45,8.19H303.79v17.79h28c15,.09,29.1-7.42,29.1-24.63V180.32C361,162.77,346.89,155.1,331.88,155.1Zm146.77,50.35V179.64c0-9.28,16.7-11.38,21.76-2.11l15.44-6.24c-6.08-13.33-17.13-17.21-26.32-17.21-15,0-29.86,8.69-29.86,25.56v25.81c0,17,14.84,25.56,29.52,25.56a30.12,30.12,0,0,0,27-16.78l-16.53-7.6c-4,10.38-21,7.85-21-1.18Zm-51-22.27c-5.82-1.26-9.7-3.37-10-7,.34-8.68,13.75-9,21.6-.67l12.4-9.53c-7.76-9.45-16.54-12-25.56-12-13.75,0-27.08,7.76-27.08,22.44,0,14.25,11,21.93,23,23.78,6.16.85,13,3.29,12.82,7.51-.51,8-17,7.59-24.55-1.52l-12,11.22c7,9,16.53,13.58,25.47,13.58,13.75,0,29-7.93,29.61-22.44.84-18.3-12.49-22.94-25.81-25.39ZM371.1,230H390V155.1H371.1Zm318.59-74.9h-28v31.46l18.64,16.78V172.81h9.95c6.33,0,9.45,3,9.45,7.93V204.1c0,4.9-3,8.19-9.45,8.19H661.6v17.79h28.09c15,.09,29.1-7.42,29.1-24.63V180.32C718.79,162.77,704.71,155.1,689.69,155.1Zm-137.4-1c-15.53,0-31,8.44-31,25.73v25.56c0,17.12,15.52,25.73,31.12,25.73s31-8.61,31-25.73V179.81C583.41,162.6,567.81,154.08,552.29,154.08Zm12.14,51.29c0,5.4-6.07,8.18-12.06,8.18s-12.15-2.61-12.15-8.18V179.81c0-5.48,5.91-8.43,11.81-8.43,6.16,0,12.4,2.61,12.4,8.43Zm86.8-25.56c-.42-17.54-12.4-24.63-27.84-24.63H593.45v74.9H612.6V206.3H616l17.38,23.78H657l-20.41-25.72C645.58,201.49,651.23,193.64,651.23,179.81Zm-27.5,10.12H612.6V172.81h11.13C635.62,172.81,635.62,189.93,623.73,189.93Z"/><path class="cls-8" d="M331.88,155.1h-28v31.46l18.64,16.78V172.81h10c6.33,0,9.45,3,9.45,7.93V204.1c0,4.9-2.95,8.19-9.45,8.19H303.79v17.79h28c15,.09,29.1-7.42,29.1-24.63V180.32C361,162.77,346.89,155.1,331.88,155.1Zm146.77,50.35V179.64c0-9.28,16.7-11.38,21.76-2.11l15.44-6.24c-6.08-13.33-17.13-17.21-26.32-17.21-15,0-29.86,8.69-29.86,25.56v25.81c0,17,14.84,25.56,29.52,25.56a30.12,30.12,0,0,0,27-16.78l-16.53-7.6c-4,10.38-21,7.85-21-1.18Zm-51-22.27c-5.82-1.26-9.7-3.37-10-7,.34-8.68,13.75-9,21.6-.67l12.4-9.53c-7.76-9.45-16.54-12-25.56-12-13.75,0-27.08,7.76-27.08,22.44,0,14.25,11,21.93,23,23.78,6.16.85,13,3.29,12.82,7.51-.51,8-17,7.59-24.55-1.52l-12,11.22c7,9,16.53,13.58,25.47,13.58,13.75,0,29-7.93,29.61-22.44.84-18.3-12.49-22.94-25.81-25.39ZM371.1,230H390V155.1H371.1Zm318.59-74.9h-28v31.46l18.64,16.78V172.81h9.95c6.33,0,9.45,3,9.45,7.93V204.1c0,4.9-3,8.19-9.45,8.19H661.6v17.79h28.09c15,.09,29.1-7.42,29.1-24.63V180.32C718.79,162.77,704.71,155.1,689.69,155.1Zm-137.4-1c-15.53,0-31,8.44-31,25.73v25.56c0,17.12,15.52,25.73,31.12,25.73s31-8.61,31-25.73V179.81C583.41,162.6,567.81,154.08,552.29,154.08Zm12.14,51.29c0,5.4-6.07,8.18-12.06,8.18s-12.15-2.61-12.15-8.18V179.81c0-5.48,5.91-8.43,11.81-8.43,6.16,0,12.4,2.61,12.4,8.43Zm86.8-25.56c-.42-17.54-12.4-24.63-27.84-24.63H593.45v74.9H612.6V206.3H616l17.38,23.78H657l-20.41-25.72C645.58,201.49,651.23,193.64,651.23,179.81Zm-27.5,10.12H612.6V172.81h11.13C635.62,172.81,635.62,189.93,623.73,189.93Z"/><path class="cls-7" d="M337.54,46.73h15.91V93.66h25.46v15.65H337.54Z"/><path class="cls-7" d="M438.3,109.31h-17l-4.06-12.56H400.56l-3.89,12.56h-17l21.83-62.58h14.41ZM413.47,82.7l-4.33-18.3h-.45L404.1,82.7Z"/><path class="cls-7" d="M481.44,76a15.87,15.87,0,0,1,8.83,17.15c-1.59,10.08-8.39,16.18-22.27,16.18H442.46V46.73h25.1c11.93,0,20.68,7.16,20.33,19.09A12.65,12.65,0,0,1,481.44,76Zm-13.88-4.77c7.69,0,7.95-11.14,0-11.14h-9.19V71.21Zm0,24.22c9.54,0,9.37-12.82,0-12.82h-9.19V95.43Z"/><path class="cls-7" d="M513.69,46.73h25c15.29,0,22.89,11.05,22.89,22.09S553.91,91,538.8,91h-9.28v18.3H513.69Zm25,30.23c9.54.08,9.54-15.56,0-15.47h-9.19V77Z"/><path class="cls-7" d="M616.05,109.31h-17L595,96.75h-16.7l-3.89,12.56h-17l21.83-62.58h14.41ZM591.21,82.7l-4.33-18.3h-.44l-4.6,18.3Z"/><path class="cls-7" d="M642.39,61.66v47.65h-16V61.66H609.77v-15H659v15Z"/><path class="cls-7" d="M681.1,109.31H665.19V46.73H681.1V70.41h18V46.73H715v62.58H699.13V85.71h-18Z"/><path class="cls-7" d="M337,46.23H353V93.16h25.46v15.65H337Z"/><path class="cls-7" d="M437.8,108.81h-17l-4.06-12.56H400.06l-3.89,12.56h-17L401,46.23h14.41ZM413,82.2l-4.33-18.3h-.45L403.6,82.2Z"/><path class="cls-7" d="M480.94,75.48a15.87,15.87,0,0,1,8.83,17.15c-1.59,10.08-8.39,16.18-22.27,16.18H442V46.23h25.1c11.93,0,20.68,7.16,20.33,19.09A12.65,12.65,0,0,1,480.94,75.48Zm-13.88-4.77c7.69,0,7.95-11.14,0-11.14h-9.19V70.71Zm0,24.22c9.54,0,9.37-12.82,0-12.82h-9.19V94.93Z"/><path class="cls-7" d="M513.19,46.23h25c15.29,0,22.89,11.05,22.89,22.09s-7.69,22.19-22.8,22.19H529v18.3H513.19Zm25,30.23c9.54.08,9.54-15.56,0-15.47H529V76.46Z"/><path class="cls-7" d="M615.55,108.81h-17l-4.07-12.56h-16.7l-3.89,12.56H557l21.83-62.58h14.41ZM590.71,82.2l-4.33-18.3h-.44l-4.6,18.3Z"/><path class="cls-7" d="M641.89,61.16v47.65h-16V61.16H609.27v-15H658.5v15Z"/><path class="cls-7" d="M680.6,108.81H664.69V46.23H680.6V69.91h18V46.23h15.91v62.58H698.63V85.21h-18Z"/><path class="cls-7" d="M336.54,45.73h15.91V92.66h25.46v15.65H336.54Z"/><path class="cls-7" d="M437.3,108.31h-17l-4.06-12.56H399.56l-3.89,12.56h-17l21.83-62.58h14.41ZM412.47,81.7l-4.33-18.3h-.45L403.1,81.7Z"/><path class="cls-7" d="M480.44,75a15.87,15.87,0,0,1,8.83,17.15c-1.59,10.08-8.39,16.18-22.27,16.18H441.46V45.73h25.1c11.93,0,20.68,7.16,20.33,19.09A12.65,12.65,0,0,1,480.44,75Zm-13.88-4.77c7.69,0,7.95-11.14,0-11.14h-9.19V70.21Zm0,24.22c9.54,0,9.37-12.82,0-12.82h-9.19V94.43Z"/><path class="cls-7" d="M512.69,45.73h25c15.29,0,22.89,11.05,22.89,22.09S552.91,90,537.8,90h-9.28v18.3H512.69Zm25,30.23c9.54.08,9.54-15.56,0-15.47h-9.19V76Z"/><path class="cls-7" d="M615.05,108.31h-17L594,95.75h-16.7l-3.89,12.56h-17l21.83-62.58h14.41ZM590.21,81.7l-4.33-18.3h-.44l-4.6,18.3Z"/><path class="cls-7" d="M641.39,60.66v47.65h-16V60.66H608.77v-15H658v15Z"/><path class="cls-7" d="M680.1,108.31H664.19V45.73H680.1V69.41h18V45.73H714v62.58H698.13V84.71h-18Z"/><path class="cls-7" d="M336,45.23H352V92.16h25.46v15.65H336Z"/><path class="cls-7" d="M436.8,107.81h-17l-4.06-12.56H399.06l-3.89,12.56h-17L400,45.23h14.41ZM412,81.2l-4.33-18.3h-.45L402.6,81.2Z"/><path class="cls-7" d="M479.94,74.48a15.87,15.87,0,0,1,8.83,17.15c-1.59,10.08-8.39,16.18-22.27,16.18H441V45.23h25.1c11.93,0,20.68,7.16,20.33,19.09A12.65,12.65,0,0,1,479.94,74.48Zm-13.88-4.77c7.69,0,7.95-11.14,0-11.14h-9.19V69.71Zm0,24.22c9.54,0,9.37-12.82,0-12.82h-9.19V93.93Z"/><path class="cls-7" d="M512.19,45.23h25c15.29,0,22.89,11.05,22.89,22.09s-7.69,22.19-22.8,22.19H528v18.3H512.19Zm25,30.23c9.54.08,9.54-15.56,0-15.47H528V75.46Z"/><path class="cls-7" d="M614.55,107.81h-17l-4.07-12.56h-16.7l-3.89,12.56H556l21.83-62.58h14.41ZM589.71,81.2l-4.33-18.3h-.44l-4.6,18.3Z"/><path class="cls-7" d="M640.89,60.16v47.65h-16V60.16H608.27v-15H657.5v15Z"/><path class="cls-7" d="M679.6,107.81H663.69V45.23H679.6V68.91h18V45.23h15.91v62.58H697.63V84.21h-18Z"/><path class="cls-7" d="M335.54,44.73h15.91V91.66h25.46v15.65H335.54Z"/><path class="cls-7" d="M436.3,107.31h-17l-4.06-12.56H398.56l-3.89,12.56h-17l21.83-62.58h14.41ZM411.47,80.7l-4.33-18.3h-.45L402.1,80.7Z"/><path class="cls-7" d="M479.44,74a15.87,15.87,0,0,1,8.83,17.15c-1.59,10.08-8.39,16.18-22.27,16.18H440.46V44.73h25.1c11.93,0,20.68,7.16,20.33,19.09A12.65,12.65,0,0,1,479.44,74Zm-13.88-4.77c7.69,0,7.95-11.14,0-11.14h-9.19V69.21Zm0,24.22c9.54,0,9.37-12.82,0-12.82h-9.19V93.43Z"/><path class="cls-7" d="M511.69,44.73h25c15.29,0,22.89,11.05,22.89,22.09S551.91,89,536.8,89h-9.28v18.3H511.69Zm25,30.23c9.54.08,9.54-15.56,0-15.47h-9.19V75Z"/><path class="cls-7" d="M614.05,107.31h-17L593,94.75h-16.7l-3.89,12.56h-17l21.83-62.58h14.41ZM589.21,80.7l-4.33-18.3h-.44l-4.6,18.3Z"/><path class="cls-7" d="M640.39,59.66v47.65h-16V59.66H607.77v-15H657v15Z"/><path class="cls-7" d="M679.1,107.31H663.19V44.73H679.1V68.41h18V44.73H713v62.58H697.13V83.71h-18Z"/><path class="cls-7" d="M335,44.23H351V91.16h25.46v15.65H335Z"/><path class="cls-7" d="M435.8,106.81h-17l-4.06-12.56H398.06l-3.89,12.56h-17L399,44.23h14.41ZM411,80.2l-4.33-18.3h-.45L401.6,80.2Z"/><path class="cls-7" d="M478.94,73.48a15.87,15.87,0,0,1,8.83,17.15c-1.59,10.08-8.39,16.18-22.27,16.18H440V44.23h25.1c11.93,0,20.68,7.16,20.33,19.09A12.65,12.65,0,0,1,478.94,73.48Zm-13.88-4.77c7.69,0,7.95-11.14,0-11.14h-9.19V68.71Zm0,24.22c9.54,0,9.37-12.82,0-12.82h-9.19V92.93Z"/><path class="cls-7" d="M511.19,44.23h25c15.29,0,22.89,11.05,22.89,22.09s-7.69,22.19-22.8,22.19H527v18.3H511.19Zm25,30.23c9.54.08,9.54-15.56,0-15.47H527V74.46Z"/><path class="cls-7" d="M613.55,106.81h-17l-4.07-12.56h-16.7l-3.89,12.56H555l21.83-62.58h14.41ZM588.71,80.2l-4.33-18.3h-.44l-4.6,18.3Z"/><path class="cls-7" d="M639.89,59.16v47.65h-16V59.16H607.27v-15H656.5v15Z"/><path class="cls-7" d="M678.6,106.81H662.69V44.23H678.6V67.91h18V44.23h15.91v62.58H696.63V83.21h-18Z"/><path class="cls-7" d="M334.54,43.73h15.91V90.66h25.46v15.65H334.54Z"/><path class="cls-7" d="M435.3,106.31h-17l-4.06-12.56H397.56l-3.89,12.56h-17l21.83-62.58h14.41ZM410.47,79.7l-4.33-18.3h-.45L401.1,79.7Z"/><path class="cls-7" d="M478.44,73a15.87,15.87,0,0,1,8.83,17.15c-1.59,10.08-8.39,16.18-22.27,16.18H439.46V43.73h25.1c11.93,0,20.68,7.16,20.33,19.09A12.65,12.65,0,0,1,478.44,73Zm-13.88-4.77c7.69,0,7.95-11.14,0-11.14h-9.19V68.21Zm0,24.22c9.54,0,9.37-12.82,0-12.82h-9.19V92.43Z"/><path class="cls-7" d="M510.69,43.73h25c15.29,0,22.89,11.05,22.89,22.09S550.91,88,535.8,88h-9.28v18.3H510.69Zm25,30.23c9.54.08,9.54-15.56,0-15.47h-9.19V74Z"/><path class="cls-7" d="M613.05,106.31h-17L592,93.75h-16.7l-3.89,12.56h-17l21.83-62.58h14.41ZM588.21,79.7l-4.33-18.3h-.44l-4.6,18.3Z"/><path class="cls-7" d="M639.39,58.66v47.65h-16V58.66H606.77v-15H656v15Z"/><path class="cls-7" d="M678.1,106.31H662.19V43.73H678.1V67.41h18V43.73H712v62.58H696.13V82.71h-18Z"/><path class="cls-7" d="M334,43.23H350V90.16h25.46v15.65H334Z"/><path class="cls-7" d="M434.8,105.81h-17l-4.06-12.56H397.06l-3.89,12.56h-17L398,43.23h14.41ZM410,79.2l-4.33-18.3h-.45L400.6,79.2Z"/><path class="cls-7" d="M477.94,72.48a15.87,15.87,0,0,1,8.83,17.15c-1.59,10.08-8.39,16.18-22.27,16.18H439V43.23h25.1c11.93,0,20.68,7.16,20.33,19.09A12.65,12.65,0,0,1,477.94,72.48Zm-13.88-4.77c7.69,0,7.95-11.14,0-11.14h-9.19V67.71Zm0,24.22c9.54,0,9.37-12.82,0-12.82h-9.19V91.93Z"/><path class="cls-7" d="M510.19,43.23h25c15.29,0,22.89,11.05,22.89,22.09s-7.69,22.19-22.8,22.19H526v18.3H510.19Zm25,30.23c9.54.08,9.54-15.56,0-15.47H526V73.46Z"/><path class="cls-7" d="M612.55,105.81h-17l-4.07-12.56h-16.7l-3.89,12.56H554l21.83-62.58h14.41ZM587.71,79.2l-4.33-18.3h-.44l-4.6,18.3Z"/><path class="cls-7" d="M638.89,58.16v47.65h-16V58.16H606.27v-15H655.5v15Z"/><path class="cls-7" d="M677.6,105.81H661.69V43.23H677.6V66.91h18V43.23h15.91v62.58H695.63V82.21h-18Z"/><path class="cls-7" d="M333.54,42.73h15.91V89.66h25.46v15.65H333.54Z"/><path class="cls-7" d="M434.3,105.31h-17l-4.06-12.56H396.56l-3.89,12.56h-17l21.83-62.58h14.41ZM409.47,78.7l-4.33-18.3h-.45L400.1,78.7Z"/><path class="cls-7" d="M477.44,72a15.87,15.87,0,0,1,8.83,17.15c-1.59,10.08-8.39,16.18-22.27,16.18H438.46V42.73h25.1c11.93,0,20.68,7.16,20.33,19.09A12.65,12.65,0,0,1,477.44,72Zm-13.88-4.77c7.69,0,7.95-11.14,0-11.14h-9.19V67.21Zm0,24.22c9.54,0,9.37-12.82,0-12.82h-9.19V91.43Z"/><path class="cls-7" d="M509.69,42.73h25c15.29,0,22.89,11.05,22.89,22.09S549.91,87,534.8,87h-9.28v18.3H509.69Zm25,30.23c9.54.08,9.54-15.56,0-15.47h-9.19V73Z"/><path class="cls-7" d="M612.05,105.31h-17L591,92.75h-16.7l-3.89,12.56h-17l21.83-62.58h14.41ZM587.21,78.7l-4.33-18.3h-.44l-4.6,18.3Z"/><path class="cls-7" d="M638.39,57.66v47.65h-16V57.66H605.77v-15H655v15Z"/><path class="cls-7" d="M677.1,105.31H661.19V42.73H677.1V66.41h18V42.73H711v62.58H695.13V81.71h-18Z"/><path class="cls-7" d="M333,42.23H349V89.16h25.46v15.65H333Z"/><path class="cls-7" d="M433.8,104.81h-17l-4.06-12.56H396.06l-3.89,12.56h-17L397,42.23h14.41ZM409,78.2l-4.33-18.3h-.45L399.6,78.2Z"/><path class="cls-7" d="M476.94,71.48a15.87,15.87,0,0,1,8.83,17.15c-1.59,10.08-8.39,16.18-22.27,16.18H438V42.23h25.1c11.93,0,20.68,7.16,20.33,19.09A12.65,12.65,0,0,1,476.94,71.48Zm-13.88-4.77c7.69,0,7.95-11.14,0-11.14h-9.19V66.71Zm0,24.22c9.54,0,9.37-12.82,0-12.82h-9.19V90.93Z"/><path class="cls-7" d="M509.19,42.23h25c15.29,0,22.89,11.05,22.89,22.09s-7.69,22.19-22.8,22.19H525v18.3H509.19Zm25,30.23c9.54.08,9.54-15.56,0-15.47H525V72.46Z"/><path class="cls-7" d="M611.55,104.81h-17l-4.07-12.56h-16.7l-3.89,12.56H553l21.83-62.58h14.41ZM586.71,78.2l-4.33-18.3h-.44l-4.6,18.3Z"/><path class="cls-7" d="M637.89,57.16v47.65h-16V57.16H605.27v-15H654.5v15Z"/><path class="cls-7" d="M676.6,104.81H660.69V42.23H676.6V65.91h18V42.23h15.91v62.58H694.63V81.21h-18Z"/><path class="cls-7" d="M332.54,41.73h15.91V88.66h25.46v15.65H332.54Z"/><path class="cls-7" d="M433.3,104.31h-17l-4.06-12.56H395.56l-3.89,12.56h-17l21.83-62.58h14.41ZM408.47,77.7l-4.33-18.3h-.45L399.1,77.7Z"/><path class="cls-7" d="M476.44,71a15.87,15.87,0,0,1,8.83,17.15c-1.59,10.08-8.39,16.18-22.27,16.18H437.46V41.73h25.1c11.93,0,20.68,7.16,20.33,19.09A12.65,12.65,0,0,1,476.44,71Zm-13.88-4.77c7.69,0,7.95-11.14,0-11.14h-9.19V66.21Zm0,24.22c9.54,0,9.37-12.82,0-12.82h-9.19V90.43Z"/><path class="cls-7" d="M508.69,41.73h25c15.29,0,22.89,11.05,22.89,22.09S548.91,86,533.8,86h-9.28v18.3H508.69Zm25,30.23c9.54.08,9.54-15.56,0-15.47h-9.19V72Z"/><path class="cls-7" d="M611.05,104.31h-17L590,91.75h-16.7l-3.89,12.56h-17l21.83-62.58h14.41ZM586.21,77.7l-4.33-18.3h-.44l-4.6,18.3Z"/><path class="cls-7" d="M637.39,56.66v47.65h-16V56.66H604.77v-15H654v15Z"/><path class="cls-7" d="M676.1,104.31H660.19V41.73H676.1V65.41h18V41.73H710v62.58H694.13V80.71h-18Z"/><path class="cls-7" d="M332,41.23H348V88.16h25.46v15.65H332Z"/><path class="cls-7" d="M432.8,103.81h-17l-4.06-12.56H395.06l-3.89,12.56h-17L396,41.23h14.41ZM408,77.2l-4.33-18.3h-.45L398.6,77.2Z"/><path class="cls-7" d="M475.94,70.48a15.87,15.87,0,0,1,8.83,17.15c-1.59,10.08-8.39,16.18-22.27,16.18H437V41.23h25.1c11.93,0,20.68,7.16,20.33,19.09A12.65,12.65,0,0,1,475.94,70.48Zm-13.88-4.77c7.69,0,7.95-11.14,0-11.14h-9.19V65.71Zm0,24.22c9.54,0,9.37-12.82,0-12.82h-9.19V89.93Z"/><path class="cls-7" d="M508.19,41.23h25c15.29,0,22.89,11.05,22.89,22.09s-7.69,22.19-22.8,22.19H524v18.3H508.19Zm25,30.23c9.54.08,9.54-15.56,0-15.47H524V71.46Z"/><path class="cls-7" d="M610.55,103.81h-17l-4.07-12.56h-16.7l-3.89,12.56H552l21.83-62.58h14.41ZM585.71,77.2l-4.33-18.3h-.44l-4.6,18.3Z"/><path class="cls-7" d="M636.89,56.16v47.65h-16V56.16H604.27v-15H653.5v15Z"/><path class="cls-7" d="M675.6,103.81H659.69V41.23H675.6V64.91h18V41.23h15.91v62.58H693.63V80.21h-18Z"/><path class="cls-7" d="M331.54,40.73h15.91V87.66h25.46v15.65H331.54Z"/><path class="cls-7" d="M432.3,103.31h-17l-4.06-12.56H394.56l-3.89,12.56h-17l21.83-62.58h14.41ZM407.47,76.7l-4.33-18.3h-.45L398.1,76.7Z"/><path class="cls-7" d="M475.44,70a15.87,15.87,0,0,1,8.83,17.15c-1.59,10.08-8.39,16.18-22.27,16.18H436.46V40.73h25.1c11.93,0,20.68,7.16,20.33,19.09A12.65,12.65,0,0,1,475.44,70Zm-13.88-4.77c7.69,0,7.95-11.14,0-11.14h-9.19V65.21Zm0,24.22c9.54,0,9.37-12.82,0-12.82h-9.19V89.43Z"/><path class="cls-7" d="M507.69,40.73h25c15.29,0,22.89,11.05,22.89,22.09S547.91,85,532.8,85h-9.28v18.3H507.69Zm25,30.23c9.54.08,9.54-15.56,0-15.47h-9.19V71Z"/><path class="cls-7" d="M610.05,103.31h-17L589,90.75h-16.7l-3.89,12.56h-17l21.83-62.58h14.41ZM585.21,76.7l-4.33-18.3h-.44l-4.6,18.3Z"/><path class="cls-7" d="M636.39,55.66v47.65h-16V55.66H603.77v-15H653v15Z"/><path class="cls-7" d="M675.1,103.31H659.19V40.73H675.1V64.41h18V40.73H709v62.58H693.13V79.71h-18Z"/><path class="cls-7" d="M331,40.23H347V87.16h25.46v15.65H331Z"/><path class="cls-7" d="M431.8,102.81h-17l-4.06-12.56H394.06l-3.89,12.56h-17L395,40.23h14.41ZM407,76.2l-4.33-18.3h-.45L397.6,76.2Z"/><path class="cls-7" d="M474.94,69.48a15.87,15.87,0,0,1,8.83,17.15c-1.59,10.08-8.39,16.18-22.27,16.18H436V40.23h25.1c11.93,0,20.68,7.16,20.33,19.09A12.65,12.65,0,0,1,474.94,69.48Zm-13.88-4.77c7.69,0,7.95-11.14,0-11.14h-9.19V64.71Zm0,24.22c9.54,0,9.37-12.82,0-12.82h-9.19V88.93Z"/><path class="cls-7" d="M507.19,40.23h25c15.29,0,22.89,11.05,22.89,22.09s-7.69,22.19-22.8,22.19H523v18.3H507.19Zm25,30.23c9.54.08,9.54-15.56,0-15.47H523V70.46Z"/><path class="cls-7" d="M609.55,102.81h-17l-4.07-12.56h-16.7l-3.89,12.56H551l21.83-62.58h14.41ZM584.71,76.2l-4.33-18.3h-.44l-4.6,18.3Z"/><path class="cls-7" d="M635.89,55.16v47.65h-16V55.16H603.27v-15H652.5v15Z"/><path class="cls-7" d="M674.6,102.81H658.69V40.23H674.6V63.91h18V40.23h15.91v62.58H692.63V79.21h-18Z"/><path class="cls-7" d="M330.54,39.73h15.91V86.66h25.46v15.65H330.54Z"/><path class="cls-7" d="M431.3,102.31h-17l-4.06-12.56H393.56l-3.89,12.56h-17l21.83-62.58h14.41ZM406.47,75.7l-4.33-18.3h-.45L397.1,75.7Z"/><path class="cls-7" d="M474.44,69a15.87,15.87,0,0,1,8.83,17.15c-1.59,10.08-8.39,16.18-22.27,16.18H435.46V39.73h25.1c11.93,0,20.68,7.16,20.33,19.09A12.65,12.65,0,0,1,474.44,69Zm-13.88-4.77c7.69,0,7.95-11.14,0-11.14h-9.19V64.21Zm0,24.22c9.54,0,9.37-12.82,0-12.82h-9.19V88.43Z"/><path class="cls-7" d="M506.69,39.73h25c15.29,0,22.89,11.05,22.89,22.09S546.91,84,531.8,84h-9.28v18.3H506.69Zm25,30.23c9.54.08,9.54-15.56,0-15.47h-9.19V70Z"/><path class="cls-7" d="M609.05,102.31h-17L588,89.75h-16.7l-3.89,12.56h-17l21.83-62.58h14.41ZM584.21,75.7l-4.33-18.3h-.44l-4.6,18.3Z"/><path class="cls-7" d="M635.39,54.66v47.65h-16V54.66H602.77v-15H652v15Z"/><path class="cls-7" d="M674.1,102.31H658.19V39.73H674.1V63.41h18V39.73H708v62.58H692.13V78.71h-18Z"/><path class="cls-7" d="M330,39.23H346V86.16h25.46v15.65H330Z"/><path class="cls-7" d="M430.8,101.81h-17l-4.06-12.56H393.06l-3.89,12.56h-17L394,39.23h14.41ZM406,75.2l-4.33-18.3h-.45L396.6,75.2Z"/><path class="cls-7" d="M473.94,68.48a15.87,15.87,0,0,1,8.83,17.15c-1.59,10.08-8.39,16.18-22.27,16.18H435V39.23h25.1c11.93,0,20.68,7.16,20.33,19.09A12.65,12.65,0,0,1,473.94,68.48Zm-13.88-4.77c7.69,0,7.95-11.14,0-11.14h-9.19V63.71Zm0,24.22c9.54,0,9.37-12.82,0-12.82h-9.19V87.93Z"/><path class="cls-7" d="M506.19,39.23h25c15.29,0,22.89,11.05,22.89,22.09s-7.69,22.19-22.8,22.19H522v18.3H506.19Zm25,30.23c9.54.08,9.54-15.56,0-15.47H522V69.46Z"/><path class="cls-7" d="M608.55,101.81h-17l-4.07-12.56h-16.7l-3.89,12.56H550l21.83-62.58h14.41ZM583.71,75.2l-4.33-18.3h-.44l-4.6,18.3Z"/><path class="cls-7" d="M634.89,54.16v47.65h-16V54.16H602.27v-15H651.5v15Z"/><path class="cls-7" d="M673.6,101.81H657.69V39.23H673.6V62.91h18V39.23h15.91v62.58H691.63V78.21h-18Z"/><path class="cls-7" d="M329.54,38.73h15.91V85.66h25.46v15.65H329.54Z"/><path class="cls-7" d="M430.3,101.31h-17l-4.06-12.56H392.56l-3.89,12.56h-17l21.83-62.58h14.41ZM405.47,74.7l-4.33-18.3h-.45L396.1,74.7Z"/><path class="cls-7" d="M473.44,68a15.87,15.87,0,0,1,8.83,17.15c-1.59,10.08-8.39,16.18-22.27,16.18H434.46V38.73h25.1c11.93,0,20.68,7.16,20.33,19.09A12.65,12.65,0,0,1,473.44,68Zm-13.88-4.77c7.69,0,7.95-11.14,0-11.14h-9.19V63.21Zm0,24.22c9.54,0,9.37-12.82,0-12.82h-9.19V87.43Z"/><path class="cls-7" d="M505.69,38.73h25c15.29,0,22.89,11.05,22.89,22.09S545.91,83,530.8,83h-9.28v18.3H505.69Zm25,30.23c9.54.08,9.54-15.56,0-15.47h-9.19V69Z"/><path class="cls-7" d="M608.05,101.31h-17L587,88.75h-16.7l-3.89,12.56h-17l21.83-62.58h14.41ZM583.21,74.7l-4.33-18.3h-.44l-4.6,18.3Z"/><path class="cls-7" d="M634.39,53.66v47.65h-16V53.66H601.77v-15H651v15Z"/><path class="cls-7" d="M673.1,101.31H657.19V38.73H673.1V62.41h18V38.73H707v62.58H691.13V77.71h-18Z"/><path class="cls-7" d="M329,38.23H345V85.16h25.46v15.65H329Z"/><path class="cls-7" d="M429.8,100.81h-17l-4.06-12.56H392.06l-3.89,12.56h-17L393,38.23h14.41ZM405,74.2l-4.33-18.3h-.45L395.6,74.2Z"/><path class="cls-7" d="M472.94,67.48a15.87,15.87,0,0,1,8.83,17.15c-1.59,10.08-8.39,16.18-22.27,16.18H434V38.23h25.1c11.93,0,20.68,7.16,20.33,19.09A12.65,12.65,0,0,1,472.94,67.48Zm-13.88-4.77c7.69,0,7.95-11.14,0-11.14h-9.19V62.71Zm0,24.22c9.54,0,9.37-12.82,0-12.82h-9.19V86.93Z"/><path class="cls-7" d="M505.19,38.23h25c15.29,0,22.89,11.05,22.89,22.09s-7.69,22.19-22.8,22.19H521v18.3H505.19Zm25,30.23c9.54.08,9.54-15.56,0-15.47H521V68.46Z"/><path class="cls-7" d="M607.55,100.81h-17l-4.07-12.56h-16.7l-3.89,12.56H549l21.83-62.58h14.41ZM582.71,74.2l-4.33-18.3h-.44l-4.6,18.3Z"/><path class="cls-7" d="M633.89,53.16v47.65h-16V53.16H601.27v-15H650.5v15Z"/><path class="cls-7" d="M672.6,100.81H656.69V38.23H672.6V61.91h18V38.23h15.91v62.58H690.63V77.21h-18Z"/><path class="cls-7" d="M328.54,37.73h15.91V84.66h25.46v15.65H328.54Z"/><path class="cls-7" d="M429.3,100.31h-17l-4.06-12.56H391.56l-3.89,12.56h-17l21.83-62.58h14.41ZM404.47,73.7l-4.33-18.3h-.45L395.1,73.7Z"/><path class="cls-7" d="M472.44,67a15.87,15.87,0,0,1,8.83,17.15c-1.59,10.08-8.39,16.18-22.27,16.18H433.46V37.73h25.1c11.93,0,20.68,7.16,20.33,19.09A12.65,12.65,0,0,1,472.44,67Zm-13.88-4.77c7.69,0,7.95-11.14,0-11.14h-9.19V62.21Zm0,24.22c9.54,0,9.37-12.82,0-12.82h-9.19V86.43Z"/><path class="cls-7" d="M504.69,37.73h25c15.29,0,22.89,11.05,22.89,22.09S544.91,82,529.8,82h-9.28v18.3H504.69Zm25,30.23c9.54.08,9.54-15.56,0-15.47h-9.19V68Z"/><path class="cls-7" d="M607.05,100.31h-17L586,87.75h-16.7l-3.89,12.56h-17l21.83-62.58h14.41ZM582.21,73.7l-4.33-18.3h-.44l-4.6,18.3Z"/><path class="cls-7" d="M633.39,52.66v47.65h-16V52.66H600.77v-15H650v15Z"/><path class="cls-7" d="M672.1,100.31H656.19V37.73H672.1V61.41h18V37.73H706v62.58H690.13V76.71h-18Z"/><path class="cls-7" d="M328,37.23H344V84.16h25.46V99.81H328Z"/><path class="cls-7" d="M428.8,99.81h-17l-4.06-12.56H391.06l-3.89,12.56h-17L392,37.23h14.41ZM404,73.2l-4.33-18.3h-.45L394.6,73.2Z"/><path class="cls-7" d="M471.94,66.48a15.87,15.87,0,0,1,8.83,17.15c-1.59,10.08-8.39,16.18-22.27,16.18H433V37.23h25.1c11.93,0,20.68,7.16,20.33,19.09A12.65,12.65,0,0,1,471.94,66.48Zm-13.88-4.77c7.69,0,7.95-11.14,0-11.14h-9.19V61.71Zm0,24.22c9.54,0,9.37-12.82,0-12.82h-9.19V85.93Z"/><path class="cls-7" d="M504.19,37.23h25c15.29,0,22.89,11.05,22.89,22.09s-7.69,22.19-22.8,22.19H520v18.3H504.19Zm25,30.23c9.54.08,9.54-15.56,0-15.47H520V67.46Z"/><path class="cls-7" d="M606.55,99.81h-17l-4.07-12.56h-16.7l-3.89,12.56H548l21.83-62.58h14.41ZM581.71,73.2l-4.33-18.3h-.44l-4.6,18.3Z"/><path class="cls-7" d="M632.89,52.16V99.81h-16V52.16H600.27v-15H649.5v15Z"/><path class="cls-7" d="M671.6,99.81H655.69V37.23H671.6V60.91h18V37.23h15.91V99.81H689.63V76.21h-18Z"/><path class="cls-7" d="M327.54,36.73h15.91V83.66h25.46V99.31H327.54Z"/><path class="cls-7" d="M428.3,99.31h-17l-4.06-12.56H390.56l-3.89,12.56h-17l21.83-62.58h14.41ZM403.47,72.7l-4.33-18.3h-.45L394.1,72.7Z"/><path class="cls-7" d="M471.44,66a15.87,15.87,0,0,1,8.83,17.15c-1.59,10.08-8.39,16.18-22.27,16.18H432.46V36.73h25.1c11.93,0,20.68,7.16,20.33,19.09A12.65,12.65,0,0,1,471.44,66Zm-13.88-4.77c7.69,0,7.95-11.14,0-11.14h-9.19V61.21Zm0,24.22c9.54,0,9.37-12.82,0-12.82h-9.19V85.43Z"/><path class="cls-7" d="M503.69,36.73h25c15.29,0,22.89,11.05,22.89,22.09S543.91,81,528.8,81h-9.28v18.3H503.69Zm25,30.23c9.54.08,9.54-15.56,0-15.47h-9.19V67Z"/><path class="cls-7" d="M606.05,99.31h-17L585,86.75h-16.7l-3.89,12.56h-17l21.83-62.58h14.41ZM581.21,72.7l-4.33-18.3h-.44l-4.6,18.3Z"/><path class="cls-7" d="M632.39,51.66V99.31h-16V51.66H599.77v-15H649v15Z"/><path class="cls-7" d="M671.1,99.31H655.19V36.73H671.1V60.41h18V36.73H705V99.31H689.13V75.71h-18Z"/><path class="cls-8" d="M327.54,36.73h15.91V83.66h25.46V99.31H327.54Z"/><path class="cls-8" d="M428.3,99.31h-17l-4.06-12.56H390.56l-3.89,12.56h-17l21.83-62.58h14.41ZM403.47,72.7l-4.33-18.3h-.45L394.1,72.7Z"/><path class="cls-8" d="M471.44,66a15.87,15.87,0,0,1,8.83,17.15c-1.59,10.08-8.39,16.18-22.27,16.18H432.46V36.73h25.1c11.93,0,20.68,7.16,20.33,19.09A12.65,12.65,0,0,1,471.44,66Zm-13.88-4.77c7.69,0,7.95-11.14,0-11.14h-9.19V61.21Zm0,24.22c9.54,0,9.37-12.82,0-12.82h-9.19V85.43Z"/><path class="cls-8" d="M503.69,36.73h25c15.29,0,22.89,11.05,22.89,22.09S543.91,81,528.8,81h-9.28v18.3H503.69Zm25,30.23c9.54.08,9.54-15.56,0-15.47h-9.19V67Z"/><path class="cls-8" d="M606.05,99.31h-17L585,86.75h-16.7l-3.89,12.56h-17l21.83-62.58h14.41ZM581.21,72.7l-4.33-18.3h-.44l-4.6,18.3Z"/><path class="cls-8" d="M632.39,51.66V99.31h-16V51.66H599.77v-15H649v15Z"/><path class="cls-8" d="M671.1,99.31H655.19V36.73H671.1V60.41h18V36.73H705V99.31H689.13V75.71h-18Z"/></svg>